<svg width="25" height="24" viewBox="0 0 25 24" fill="none" xmlns="http://www.w3.org/2000/svg">
<path d="M7.3501 12C7.3501 11.8011 7.42912 11.6103 7.56977 11.4697C7.71042 11.329 7.90119 11.25 8.1001 11.25H16.1001C16.299 11.25 16.4898 11.329 16.6304 11.4697C16.7711 11.6103 16.8501 11.8011 16.8501 12C16.8501 12.1989 16.7711 12.3897 16.6304 12.5303C16.4898 12.671 16.299 12.75 16.1001 12.75H8.1001C7.90119 12.75 7.71042 12.671 7.56977 12.5303C7.42912 12.3897 7.3501 12.1989 7.3501 12ZM10.1001 14.25C9.90119 14.25 9.71042 14.329 9.56977 14.4697C9.42912 14.6103 9.3501 14.8011 9.3501 15C9.3501 15.1989 9.42912 15.3897 9.56977 15.5303C9.71042 15.671 9.90119 15.75 10.1001 15.75H14.1001C14.299 15.75 14.4898 15.671 14.6304 15.5303C14.7711 15.3897 14.8501 15.1989 14.8501 15C14.8501 14.8011 14.7711 14.6103 14.6304 14.4697C14.4898 14.329 14.299 14.25 14.1001 14.25H10.1001Z" fill="#61646B"/>
<path fill-rule="evenodd" clip-rule="evenodd" d="M14.7652 2.33015C14.9431 2.24123 15.1489 2.22658 15.3376 2.28939C15.5262 2.35221 15.6822 2.48737 15.7712 2.66515L17.5842 6.29115C18.0116 6.31181 18.4016 6.34715 18.7542 6.39715C19.8102 6.54815 20.6842 6.87415 21.3052 7.64215C21.9262 8.41015 22.0622 9.33315 21.9892 10.3971C21.9192 11.4281 21.6392 12.7291 21.2912 14.3541L20.8402 16.4611C20.6052 17.5581 20.4142 18.4471 20.1742 19.1411C19.9242 19.8661 19.5942 20.4611 19.0322 20.9161C18.4702 21.3711 17.8182 21.5681 17.0582 21.6611C16.3282 21.7501 15.4182 21.7501 14.2982 21.7501H9.90224C8.78024 21.7501 7.87124 21.7501 7.14124 21.6611C6.38124 21.5681 5.72924 21.3711 5.16724 20.9161C4.60524 20.4611 4.27524 19.8661 4.02524 19.1421C3.78524 18.4471 3.59524 17.5581 3.35924 16.4621L2.90824 14.3551C2.56024 12.7291 2.28124 11.4281 2.21024 10.3971C2.13724 9.33315 2.27324 8.41115 2.89424 7.64215C3.51424 6.87415 4.38824 6.54815 5.44424 6.39715C5.79758 6.34781 6.18758 6.31248 6.61424 6.29115L8.43024 2.66515C8.52002 2.48878 8.67586 2.35504 8.86381 2.29307C9.05176 2.23111 9.25659 2.24594 9.43365 2.33434C9.61071 2.42274 9.74566 2.57754 9.80908 2.76501C9.8725 2.95247 9.85926 3.1574 9.77224 3.33515L8.31224 6.25215C8.67624 6.25015 9.05924 6.24948 9.46124 6.25015H14.7392C15.1412 6.25015 15.5242 6.25081 15.8882 6.25215L14.4292 3.33515C14.3403 3.15731 14.3257 2.95144 14.3885 2.7628C14.4513 2.57416 14.5865 2.41818 14.7642 2.32915M5.83224 7.85815L5.42924 8.66415C5.38434 8.75236 5.35735 8.84859 5.34981 8.94728C5.34228 9.04598 5.35436 9.14519 5.38535 9.23919C5.41634 9.3332 5.46563 9.42014 5.53039 9.495C5.59514 9.56986 5.67407 9.63117 5.76263 9.67538C5.85119 9.7196 5.94762 9.74584 6.04637 9.75261C6.14512 9.75938 6.24424 9.74653 6.338 9.71481C6.43176 9.68308 6.51831 9.63312 6.59267 9.56778C6.66703 9.50245 6.72772 9.42305 6.77124 9.33415L7.55824 7.76015C8.12824 7.75015 8.77824 7.74915 9.52224 7.74915H14.6782C15.4222 7.74915 16.0722 7.74915 16.6422 7.75915L17.4292 9.33415C17.519 9.51052 17.6749 9.64425 17.8628 9.70622C18.0508 9.76818 18.2556 9.75335 18.4326 9.66495C18.6097 9.57655 18.7447 9.42175 18.8081 9.23429C18.8715 9.04682 18.8583 8.84189 18.7712 8.66415L18.3682 7.85815L18.5422 7.88115C19.4262 8.00815 19.8592 8.23915 20.1392 8.58415C20.4192 8.93015 20.5532 9.40315 20.4922 10.2941C20.4302 11.2041 20.1762 12.4001 19.8122 14.0991L19.3822 16.0991C19.1352 17.2541 18.9622 18.0531 18.7562 18.6511C18.5562 19.2311 18.3522 19.5371 18.0892 19.7491C17.8272 19.9611 17.4842 20.0971 16.8772 20.1711C16.2482 20.2481 15.4302 20.2491 14.2492 20.2491H9.95024C8.77024 20.2491 7.95224 20.2481 7.32324 20.1711C6.71524 20.0971 6.37324 19.9611 6.11124 19.7491C5.84824 19.5371 5.64324 19.2301 5.44424 18.6511C5.23724 18.0531 5.06424 17.2541 4.81724 16.0991L4.38824 14.0991C4.02424 12.3991 3.77024 11.2051 3.70824 10.2941C3.64724 9.40315 3.78224 8.93015 4.06124 8.58415C4.34124 8.23915 4.77424 8.00815 5.65824 7.88115L5.83224 7.85815Z" fill="#61646B"/>
</svg>
