<svg width="25" height="24" viewBox="0 0 25 24" fill="none" xmlns="http://www.w3.org/2000/svg">
<path d="M4.2002 9.48981L4.2002 9.48946C4.20014 9.41327 4.2175 9.33807 4.25095 9.26961C4.2844 9.20115 4.33305 9.14125 4.39319 9.09446C4.39319 9.09446 4.39319 9.09446 4.3932 9.09446L12.3932 2.87146L12.3932 2.87146C12.481 2.80318 12.589 2.76611 12.7002 2.76611C12.8114 2.76611 12.9194 2.80318 13.0072 2.87146L13.0072 2.87146L21.0072 9.09446C21.0673 9.14124 21.116 9.20115 21.1494 9.26961C21.1829 9.33807 21.2002 9.41326 21.2002 9.48946V9.48981V19.9998C21.2002 20.1324 21.1475 20.2596 21.0537 20.3534C20.96 20.4471 20.8328 20.4998 20.7002 20.4998H4.7002C4.56759 20.4998 4.44041 20.4471 4.34664 20.3534C4.25287 20.2596 4.2002 20.1324 4.2002 19.9998L4.2002 9.48981ZM7.7002 14.4998H7.2002V14.9998V16.9998V17.4998H7.7002H17.7002H18.2002V16.9998V14.9998V14.4998H17.7002H7.7002Z" stroke="#61646B"/>
</svg>
