<svg width="25" height="24" viewBox="0 0 25 24" fill="none" xmlns="http://www.w3.org/2000/svg">
<path d="M21.7002 20.0001C21.7002 20.2653 21.5948 20.5196 21.4073 20.7072C21.2198 20.8947 20.9654 21.0001 20.7002 21.0001H4.7002C4.43498 21.0001 4.18063 20.8947 3.99309 20.7072C3.80555 20.5196 3.7002 20.2653 3.7002 20.0001V9.49005C3.70009 9.33766 3.73481 9.18727 3.80171 9.05035C3.86861 8.91343 3.96592 8.79362 4.0862 8.70005L12.0862 2.47705C12.2617 2.3405 12.4778 2.26636 12.7002 2.26636C12.9226 2.26636 13.1387 2.3405 13.3142 2.47705L21.3142 8.70005C21.4345 8.79362 21.5318 8.91343 21.5987 9.05035C21.6656 9.18727 21.7003 9.33766 21.7002 9.49005V20.0001ZM7.7002 15.0001V17.0001H17.7002V15.0001H7.7002Z" fill="#61646B"/>
</svg>
