<svg width="25" height="24" viewBox="0 0 25 24" fill="none" xmlns="http://www.w3.org/2000/svg">
<path d="M2.5 12.4C2.5 9.383 2.5 7.875 3.446 6.937C4.393 6 5.916 6 8.962 6H10.038C13.085 6 14.608 6 15.554 6.937C16.5 7.874 16.5 9.383 16.5 12.4V15.6C16.5 18.617 16.5 20.125 15.554 21.063C14.607 22 13.084 22 10.038 22H8.962C5.916 22 4.392 22 3.446 21.063C2.5 20.126 2.5 18.617 2.5 15.6V12.4Z" stroke="#61646B" stroke-width="1.5" stroke-linecap="round" stroke-linejoin="round"/>
<path d="M16.038 16H16.961C19.572 16 20.878 16 21.689 15.18C22.5 14.36 22.5 13.04 22.5 10.4V7.6C22.5 4.96 22.5 3.64 21.689 2.82C20.878 2 19.572 2 16.96 2H16.037C13.425 2 12.12 2 11.309 2.82C10.599 3.537 10.51 4.637 10.499 6.667M6.5 12H9.5M6.5 17H11.5M11 3L15 6.5" stroke="#61646B" stroke-width="1.5" stroke-linecap="round" stroke-linejoin="round"/>
</svg>
