<svg width="25" height="24" viewBox="0 0 25 24" fill="none" xmlns="http://www.w3.org/2000/svg">
<path d="M21.9751 14.6649L20.4399 13.3524C20.5126 12.9071 20.5501 12.4524 20.5501 11.9978C20.5501 11.5431 20.5126 11.0884 20.4399 10.6431L21.9751 9.33057C22.0909 9.23144 22.1738 9.09942 22.2127 8.95205C22.2516 8.80468 22.2448 8.64895 22.1931 8.50557L22.172 8.44463C21.7493 7.26344 21.1165 6.16846 20.304 5.2126L20.2618 5.16338C20.1633 5.04749 20.0319 4.96418 19.885 4.92443C19.7382 4.88468 19.5827 4.89036 19.4392 4.94072L17.5337 5.61807C16.8306 5.0415 16.0454 4.58682 15.197 4.26807L14.829 2.27588C14.8012 2.12598 14.7285 1.98807 14.6205 1.88048C14.5125 1.77289 14.3743 1.70071 14.2243 1.67354L14.161 1.66182C12.9399 1.4415 11.6556 1.4415 10.4345 1.66182L10.3712 1.67354C10.2212 1.70071 10.083 1.77289 9.97499 1.88048C9.86699 1.98807 9.79427 2.12598 9.76651 2.27588L9.3962 4.27744C8.55453 4.59626 7.77073 5.0507 7.07588 5.62275L5.15635 4.94072C5.01283 4.88996 4.85727 4.88408 4.71033 4.92385C4.56338 4.96362 4.43202 5.04716 4.3337 5.16338L4.29151 5.2126C3.47998 6.16914 2.84723 7.26393 2.42354 8.44463L2.40245 8.50557C2.29698 8.79853 2.3837 9.12666 2.62041 9.33057L4.17432 10.6571C4.10167 11.0978 4.06651 11.5478 4.06651 11.9954C4.06651 12.4454 4.10167 12.8954 4.17432 13.3337L2.62041 14.6603C2.50462 14.7594 2.42175 14.8914 2.38281 15.0388C2.34388 15.1861 2.35073 15.3419 2.40245 15.4853L2.42354 15.5462C2.84776 16.7274 3.47588 17.8173 4.29151 18.7782L4.3337 18.8274C4.43226 18.9433 4.56363 19.0266 4.71048 19.0664C4.85734 19.1061 5.01279 19.1005 5.15635 19.0501L7.07588 18.3681C7.77432 18.9423 8.55479 19.397 9.3962 19.7134L9.76651 21.7149C9.79427 21.8648 9.86699 22.0027 9.97499 22.1103C10.083 22.2179 10.2212 22.2901 10.3712 22.3173L10.4345 22.329C11.6668 22.5505 12.9287 22.5505 14.161 22.329L14.2243 22.3173C14.3743 22.2901 14.5125 22.2179 14.6205 22.1103C14.7285 22.0027 14.8012 21.8648 14.829 21.7149L15.197 19.7228C16.0451 19.4048 16.8347 18.9487 17.5337 18.3728L19.4392 19.0501C19.5827 19.1009 19.7382 19.1067 19.8852 19.067C20.0321 19.0272 20.1635 18.9437 20.2618 18.8274L20.304 18.7782C21.1196 17.8149 21.7478 16.7274 22.172 15.5462L22.1931 15.4853C22.2985 15.197 22.2118 14.8688 21.9751 14.6649ZM18.7759 10.9196C18.8345 11.2735 18.8649 11.6368 18.8649 12.0001C18.8649 12.3634 18.8345 12.7267 18.7759 13.0806L18.6212 14.0204L20.372 15.5181C20.1066 16.1295 19.7715 16.7083 19.3735 17.2431L17.1985 16.472L16.4626 17.0767C15.9024 17.536 15.279 17.897 14.604 18.1501L13.711 18.4853L13.2915 20.7587C12.6296 20.8337 11.9613 20.8337 11.2993 20.7587L10.8798 18.4806L9.99385 18.1407C9.32588 17.8876 8.70479 17.5267 8.14932 17.0696L7.41338 16.4626L5.22432 17.2407C4.82588 16.704 4.49307 16.1251 4.22588 15.5157L5.99542 14.004L5.84307 13.0665C5.78682 12.7173 5.75635 12.3563 5.75635 12.0001C5.75635 11.6415 5.78448 11.2829 5.84307 10.9337L5.99542 9.99619L4.22588 8.48447C4.49073 7.87275 4.82588 7.29619 5.22432 6.75947L7.41338 7.5376L8.14932 6.93057C8.70479 6.47354 9.32588 6.1126 9.99385 5.85947L10.8821 5.52432L11.3017 3.24619C11.9603 3.17119 12.6329 3.17119 13.2939 3.24619L13.7134 5.51963L14.6064 5.85478C15.279 6.10791 15.9048 6.46885 16.4649 6.92822L17.2009 7.53291L19.3759 6.76182C19.7743 7.29853 20.1071 7.87744 20.3743 8.48682L18.6235 9.98447L18.7759 10.9196ZM12.3001 7.64072C10.022 7.64072 8.1751 9.4876 8.1751 11.7657C8.1751 14.0438 10.022 15.8907 12.3001 15.8907C14.5782 15.8907 16.4251 14.0438 16.4251 11.7657C16.4251 9.4876 14.5782 7.64072 12.3001 7.64072ZM14.1564 13.622C13.9129 13.8661 13.6236 14.0598 13.305 14.1917C12.9864 14.3236 12.6449 14.3913 12.3001 14.3907C11.5993 14.3907 10.9407 14.1165 10.4439 13.622C10.1997 13.3785 10.0061 13.0892 9.87414 12.7706C9.74221 12.452 9.67457 12.1105 9.6751 11.7657C9.6751 11.0649 9.94932 10.4063 10.4439 9.90947C10.9407 9.4126 11.5993 9.14072 12.3001 9.14072C13.0009 9.14072 13.6595 9.4126 14.1564 9.90947C14.4005 10.1529 14.5941 10.4423 14.7261 10.7608C14.858 11.0794 14.9256 11.4209 14.9251 11.7657C14.9251 12.4665 14.6509 13.1251 14.1564 13.622Z" fill="#61646B"/>
</svg>
