<svg width="26" height="25" viewBox="0 0 26 25" fill="none" xmlns="http://www.w3.org/2000/svg">
<path d="M20.1921 6.25H5.60872C4.45813 6.25 3.52539 7.18274 3.52539 8.33333V16.6667C3.52539 17.8173 4.45813 18.75 5.60872 18.75H20.1921C21.3426 18.75 22.2754 17.8173 22.2754 16.6667V8.33333C22.2754 7.18274 21.3426 6.25 20.1921 6.25Z" stroke="#61646B"/>
<path d="M5.60889 9.375H8.73389M17.0672 15.625H20.1922" stroke="#61646B" stroke-linecap="round"/>
<path d="M12.9002 14.5832C14.0508 14.5832 14.9836 13.6504 14.9836 12.4998C14.9836 11.3492 14.0508 10.4165 12.9002 10.4165C11.7496 10.4165 10.8169 11.3492 10.8169 12.4998C10.8169 13.6504 11.7496 14.5832 12.9002 14.5832Z" stroke="#61646B"/>
</svg>
